<svg xmlns="http://www.w3.org/2000/svg" width="450" height="90"><g transform="translate(20 45)"><g class="x axis" transform="translate(0 25)"><g class="tick" style="opacity: 1;" transform="translate(21.5)"><line x2="0" y2="6"/><text style="text-anchor: middle;" x="0" y="9" dy="0.71em">2002</text></g><g class="tick" style="opacity: 1;" transform="translate(53.5)"><line x2="0" y2="6"/><text style="text-anchor: middle;" x="0" y="9" dy="0.71em">2005</text></g><g class="tick" style="opacity: 1;" transform="translate(85.5)"><line x2="0" y2="6"/><text style="text-anchor: middle;" x="0" y="9" dy="0.71em">2006</text></g><g class="tick" style="opacity: 1;" transform="translate(117.5)"><line x2="0" y2="6"/><text style="text-anchor: middle;" x="0" y="9" dy="0.71em">2007</text></g><g class="tick" style="opacity: 1;" transform="translate(149.5)"><line x2="0" y2="6"/><text style="text-anchor: middle;" x="0" y="9" dy="0.71em">2008</text></g><g class="tick" style="opacity: 1;" transform="translate(181.5)"><line x2="0" y2="6"/><text style="text-anchor: middle;" x="0" y="9" dy="0.71em">2009</text></g><g class="tick" style="opacity: 1;" transform="translate(213.5)"><line x2="0" y2="6"/><text style="text-anchor: middle;" x="0" y="9" dy="0.71em">2010</text></g><g class="tick" style="opacity: 1;" transform="translate(245.5)"><line x2="0" y2="6"/><text style="text-anchor: middle;" x="0" y="9" dy="0.71em">2011</text></g><g class="tick" style="opacity: 1;" transform="translate(277.5)"><line x2="0" y2="6"/><text style="text-anchor: middle;" x="0" y="9" dy="0.71em">2012</text></g><g class="tick" style="opacity: 1;" transform="translate(309.5)"><line x2="0" y2="6"/><text style="text-anchor: middle;" x="0" y="9" dy="0.71em">2013</text></g><path class="domain" d="M 0 6 V 0 H 330 V 6"/></g><g><text font-size="1.1em" text-anchor="start" x="340" y="8.3333" dy="0.71em">Indonesia</text></g><rect class="bar" fill="#ca0020" x="7" y="25" width="29" height="0"/><rect class="bar" fill="#368ec0" x="39" y="-0.704225" width="29" height="25.7042"/><rect class="bar" fill="#84bdd9" x="71" y="3.16901" width="29" height="21.831"/><rect class="bar" fill="#6fb0d3" x="103" y="2.11268" width="29" height="22.8873"/><rect class="bar" fill="#9ccae1" x="135" y="4.57746" width="29" height="20.4225"/><rect class="bar" fill="#97c8df" x="167" y="4.22535" width="29" height="20.7746"/><rect class="bar" fill="#9ccae1" x="199" y="4.57746" width="29" height="20.4225"/><rect class="bar" fill="#61a8ce" x="231" y="1.40845" width="29" height="23.5915"/><rect class="bar" fill="#ca0020" x="263" y="25" width="29" height="0"/><rect class="bar" fill="#4c9bc7" x="295" y="0.352113" width="29" height="24.6479"/></g></svg>