<svg xmlns="http://www.w3.org/2000/svg" width="480" height="500" easypz="{&quot;applyTransformTo&quot;:&quot;svg &gt; *&quot;}"><g transform="translate(240 250)"><path class="chord" style="fill: #d2d0c6; stroke: #93918a;" d="M 1.32262e-014 -216 A 216 216 0 0 1 201.297 -78.3297 Q 0 0 -30.5023 -213.835 A 216 216 0 0 1 -30.5023 -213.835 Q 0 0 1.32262e-014 -216 Z"><title>United States owes Japan $796B.</title></path><path class="chord" style="fill: #db704d; stroke: #994e35;" d="M 215.939 -5.15372 A 216 216 0 0 1 186.611 108.777 Q 0 0 -58.8758 -207.821 A 216 216 0 0 1 -58.8758 -207.821 Q 0 0 215.939 -5.15372 Z"><title>Italy owes France $366B.</title></path><path class="chord" style="fill: #d2d0c6; stroke: #93918a;" d="M -194.117 -94.7338 A 216 216 0 0 1 -121.393 -178.661 Q 0 0 -30.5023 -213.835 A 216 216 0 0 1 -30.5023 -213.835 Q 0 0 -194.117 -94.7338 Z"><title>United States owes Britain $345B.</title></path><path class="chord" style="fill: #d2d0c6; stroke: #93918a;" d="M -196.124 90.5062 A 216 216 0 0 1 -215.624 -12.7321 Q 0 0 -102.377 -190.197 A 216 216 0 0 1 -102.377 -190.197 Q 0 0 -196.124 90.5062 Z"><title>Britain owes Spain $326B.</title></path><path class="chord" style="fill: #d2d0c6; stroke: #93918a;" d="M 24.1974 214.64 A 216 216 0 0 1 -79.3277 200.906 Q 0 0 -30.5023 -213.835 A 216 216 0 0 1 -30.5023 -213.835 Q 0 0 24.1974 214.64 Z"><title>United States owes Germany $324B.</title></path><path class="chord" style="fill: #d2d0c6; stroke: #93918a;" d="M 186.611 108.777 A 216 216 0 0 1 114.321 183.267 Q 0 0 -30.5023 -213.835 A 216 216 0 0 1 -30.5023 -213.835 Q 0 0 186.611 108.777 Z"><title>United States owes France $322B.</title></path><path class="chord" style="fill: #d2d0c6; stroke: #93918a;" d="M -79.3277 200.906 A 216 216 0 0 1 -163.674 140.95 Q 0 0 -102.377 -190.197 A 216 216 0 0 1 -102.377 -190.197 Q 0 0 -79.3277 200.906 Z"><title>Britain owes Germany $321B.</title></path><path class="chord" style="fill: #d2d0c6; stroke: #93918a;" d="M -215.624 -12.7321 A 216 216 0 0 1 -206.054 -64.7904 Q 0 0 -30.5023 -213.835 A 216 216 0 0 1 -30.5023 -213.835 Q 0 0 -215.624 -12.7321 Z"><title>United States owes Spain $163B.</title></path><path class="chord" style="fill: #ecd08d; stroke: #a59162;" d="M 114.321 183.267 A 216 216 0 0 1 80.0962 200.601 Q 0 0 -197.75 -86.8954 A 216 216 0 0 1 -197.75 -86.8954 Q 0 0 114.321 183.267 Z"><title>Spain owes France $118B.</title></path><path class="chord" style="fill: #d2d0c6; stroke: #93918a;" d="M -94.6892 -194.139 A 216 216 0 0 1 -61.04 -207.196 Q 0 0 -192.348 98.2767 A 216 216 0 0 1 -192.348 98.2767 Q 0 0 -94.6892 -194.139 Z"><title>Germany owes Italy $111B.</title></path><path class="chord" style="fill: #d2d0c6; stroke: #93918a;" d="M 201.297 -78.3297 A 216 216 0 0 1 209.926 -50.8638 Q 0 0 -192.348 98.2767 A 216 216 0 0 1 -192.348 98.2767 Q 0 0 201.297 -78.3297 Z"><title>Germany owes Japan $88.5B.</title></path><path class="chord" style="fill: #db704d; stroke: #994e35;" d="M -206.054 -64.7904 A 216 216 0 0 1 -199.109 -83.7343 Q 0 0 -17.2616 -215.309 A 216 216 0 0 1 -17.2616 -215.309 Q 0 0 -206.054 -64.7904 Z"><title>Portugal owes Spain $62.0B.</title></path><path class="chord" style="fill: #ecd08d; stroke: #a59162;" d="M -163.674 140.95 A 216 216 0 0 1 -175.278 126.228 Q 0 0 -197.75 -86.8954 A 216 216 0 0 1 -197.75 -86.8954 Q 0 0 -163.674 140.95 Z"><title>Spain owes Germany $57.6B.</title></path><path class="chord" style="fill: #db704d; stroke: #994e35;" d="M 80.0962 200.601 A 216 216 0 0 1 63.554 206.439 Q 0 0 -8.6377 -215.827 A 216 216 0 0 1 -8.6377 -215.827 Q 0 0 80.0962 200.601 Z"><title>Greece owes France $53.9B.</title></path><path class="chord" style="fill: #d2d0c6; stroke: #93918a;" d="M 63.554 206.439 A 216 216 0 0 1 46.6244 210.908 Q 0 0 -192.348 98.2767 A 216 216 0 0 1 -192.348 98.2767 Q 0 0 63.554 206.439 Z"><title>Germany owes France $53.8B.</title></path><path class="chord" style="fill: #db704d; stroke: #994e35;" d="M -175.278 126.228 A 216 216 0 0 1 -184.097 112.979 Q 0 0 -44.5735 -211.351 A 216 216 0 0 1 -44.5735 -211.351 Q 0 0 -175.278 126.228 Z"><title>Ireland owes Germany $48.9B.</title></path><path class="chord" style="fill: #db704d; stroke: #994e35;" d="M 209.926 -50.8638 A 216 216 0 0 1 212.54 -38.5078 Q 0 0 -58.8758 -207.821 A 216 216 0 0 1 -58.8758 -207.821 Q 0 0 209.926 -50.8638 Z"><title>Italy owes Japan $38.8B.</title></path><path class="chord" style="fill: #db704d; stroke: #994e35;" d="M -184.097 112.979 A 216 216 0 0 1 -189.408 103.829 Q 0 0 -17.2616 -215.309 A 216 216 0 0 1 -17.2616 -215.309 Q 0 0 -184.097 112.979 Z"><title>Portugal owes Germany $32.5B.</title></path><path class="chord" style="fill: #d2d0c6; stroke: #93918a;" d="M 212.54 -38.5078 A 216 216 0 0 1 213.984 -29.4424 Q 0 0 -102.377 -190.197 A 216 216 0 0 1 -102.377 -190.197 Q 0 0 212.54 -38.5078 Z"><title>Britain owes Japan $28.2B.</title></path><path class="chord" style="fill: #db704d; stroke: #994e35;" d="M -121.393 -178.661 A 216 216 0 0 1 -114.3 -183.28 Q 0 0 -58.8758 -207.821 A 216 216 0 0 1 -58.8758 -207.821 Q 0 0 -121.393 -178.661 Z"><title>Italy owes Britain $26.0B.</title></path><path class="chord" style="fill: #ecd08d; stroke: #a59162;" d="M 213.984 -29.4424 A 216 216 0 0 1 214.97 -21.0692 Q 0 0 -197.75 -86.8954 A 216 216 0 0 1 -197.75 -86.8954 Q 0 0 213.984 -29.4424 Z"><title>Spain owes Japan $25.9B.</title></path><path class="chord" style="fill: #f8edd3; stroke: #ada593;" d="M -114.3 -183.28 A 216 216 0 0 1 -108.049 -187.033 Q 0 0 32.7614 213.501 A 216 216 0 0 1 32.7614 213.501 Q 0 0 -114.3 -183.28 Z"><title>France owes Britain $22.4B.</title></path><path class="chord" style="fill: #db704d; stroke: #994e35;" d="M -108.049 -187.033 A 216 216 0 0 1 -102.535 -190.112 Q 0 0 -17.2616 -215.309 A 216 216 0 0 1 -17.2616 -215.309 Q 0 0 -108.049 -187.033 Z"><title>Portugal owes Britain $19.4B.</title></path><path class="chord" style="fill: #db704d; stroke: #994e35;" d="M -189.408 103.829 A 216 216 0 0 1 -192.348 98.2767 Q 0 0 -8.6377 -215.827 A 216 216 0 0 1 -8.6377 -215.827 Q 0 0 -189.408 103.829 Z"><title>Greece owes Germany $19.3B.</title></path><path class="chord" style="fill: #db704d; stroke: #994e35;" d="M 214.97 -21.0692 A 216 216 0 0 1 215.483 -14.938 Q 0 0 -44.5735 -211.351 A 216 216 0 0 1 -44.5735 -211.351 Q 0 0 214.97 -21.0692 Z"><title>Ireland owes Japan $18.9B.</title></path><path class="chord" style="fill: #db704d; stroke: #994e35;" d="M 46.6244 210.908 A 216 216 0 0 1 40.7903 212.114 Q 0 0 -17.2616 -215.309 A 216 216 0 0 1 -17.2616 -215.309 Q 0 0 46.6244 210.908 Z"><title>Portugal owes France $18.3B.</title></path><path class="chord" style="fill: #db704d; stroke: #994e35;" d="M 40.7903 212.114 A 216 216 0 0 1 35.2465 213.105 Q 0 0 -44.5735 -211.351 A 216 216 0 0 1 -44.5735 -211.351 Q 0 0 40.7903 212.114 Z"><title>Ireland owes France $17.3B.</title></path><path class="chord" style="fill: #d2d0c6; stroke: #93918a;" d="M -50.5181 -210.009 A 216 216 0 0 1 -46.7118 -210.889 Q 0 0 -102.377 -190.197 A 216 216 0 0 1 -102.377 -190.197 Q 0 0 -50.5181 -210.009 Z"><title>Britain owes Ireland $12.0B.</title></path><path class="chord" style="fill: #db704d; stroke: #994e35;" d="M -36.0861 -212.964 A 216 216 0 0 1 -32.5184 -213.538 Q 0 0 -44.5735 -211.351 A 216 216 0 0 1 -44.5735 -211.351 Q 0 0 -36.0861 -212.964 Z"><title>Ireland owes United States $11.1B.</title></path><path class="chord" style="fill: #db704d; stroke: #994e35;" d="M -21.9268 -214.884 A 216 216 0 0 1 -18.6533 -215.193 Q 0 0 -8.6377 -215.827 A 216 216 0 0 1 -8.6377 -215.827 Q 0 0 -21.9268 -214.884 Z"><title>Greece owes Portugal $10.1B.</title></path><path class="chord" style="fill: #db704d; stroke: #994e35;" d="M -199.109 -83.7343 A 216 216 0 0 1 -197.852 -86.6629 Q 0 0 -58.8758 -207.821 A 216 216 0 0 1 -58.8758 -207.821 Q 0 0 -199.109 -83.7343 Z"><title>Italy owes Spain $9.79B.</title></path><path class="chord" style="fill: #d2d0c6; stroke: #93918a;" d="M 35.2465 213.105 A 216 216 0 0 1 32.7614 213.501 Q 0 0 215.56 -13.7848 A 216 216 0 0 1 215.56 -13.7848 Q 0 0 35.2465 213.105 Z"><title>Japan owes France $7.73B.</title></path><path class="chord" style="fill: #ecd08d; stroke: #a59162;" d="M -46.7118 -210.889 A 216 216 0 0 1 -44.6818 -211.328 Q 0 0 -197.75 -86.8954 A 216 216 0 0 1 -197.75 -86.8954 Q 0 0 -46.7118 -210.889 Z"><title>Spain owes Ireland $6.38B.</title></path><path class="chord" style="fill: #db704d; stroke: #994e35;" d="M -18.6533 -215.193 A 216 216 0 0 1 -17.4303 -215.296 Q 0 0 -44.5735 -211.351 A 216 216 0 0 1 -44.5735 -211.351 Q 0 0 -18.6533 -215.193 Z"><title>Ireland owes Portugal $3.77B.</title></path><path class="chord" style="fill: #db704d; stroke: #994e35;" d="M -61.04 -207.196 A 216 216 0 0 1 -60.0338 -207.49 Q 0 0 -8.6377 -215.827 A 216 216 0 0 1 -8.6377 -215.827 Q 0 0 -61.04 -207.196 Z"><title>Greece owes Italy $3.22B.</title></path><path class="chord" style="fill: #db704d; stroke: #994e35;" d="M -32.5184 -213.538 A 216 216 0 0 1 -31.5011 -213.691 Q 0 0 -58.8758 -207.821 A 216 216 0 0 1 -58.8758 -207.821 Q 0 0 -32.5184 -213.538 Z"><title>Italy owes United States $3.16B.</title></path><path class="chord" style="fill: #db704d; stroke: #994e35;" d="M -31.5011 -213.691 A 216 216 0 0 1 -30.5023 -213.835 Q 0 0 -8.6377 -215.827 A 216 216 0 0 1 -8.6377 -215.827 Q 0 0 -31.5011 -213.691 Z"><title>Greece owes United States $3.10B.</title></path><path class="chord" style="fill: #db704d; stroke: #994e35;" d="M -60.0338 -207.49 A 216 216 0 0 1 -59.1482 -207.744 Q 0 0 -44.5735 -211.351 A 216 216 0 0 1 -44.5735 -211.351 Q 0 0 -60.0338 -207.49 Z"><title>Ireland owes Italy $2.83B.</title></path><path class="chord" style="fill: #db704d; stroke: #994e35;" d="M 215.483 -14.938 A 216 216 0 0 1 215.531 -14.2299 Q 0 0 -17.2616 -215.309 A 216 216 0 0 1 -17.2616 -215.309 Q 0 0 215.483 -14.938 Z"><title>Portugal owes Japan $2.18B.</title></path><path class="chord" style="fill: #db704d; stroke: #994e35;" d="M 215.531 -14.2299 A 216 216 0 0 1 215.56 -13.7848 Q 0 0 -8.6377 -215.827 A 216 216 0 0 1 -8.6377 -215.827 Q 0 0 215.531 -14.2299 Z"><title>Greece owes Japan $1.37B.</title></path><path class="chord" style="fill: #db704d; stroke: #994e35;" d="M -59.1482 -207.744 A 216 216 0 0 1 -58.8758 -207.821 Q 0 0 -17.2616 -215.309 A 216 216 0 0 1 -17.2616 -215.309 Q 0 0 -59.1482 -207.744 Z"><title>Portugal owes Italy $0.870B.</title></path><path class="chord" style="fill: #db704d; stroke: #994e35;" d="M -197.852 -86.6629 A 216 216 0 0 1 -197.75 -86.8954 Q 0 0 -8.6377 -215.827 A 216 216 0 0 1 -8.6377 -215.827 Q 0 0 -197.852 -86.6629 Z"><title>Greece owes Spain $0.780B.</title></path><path class="chord" style="fill: #db704d; stroke: #994e35;" d="M -102.535 -190.112 A 216 216 0 0 1 -102.377 -190.197 Q 0 0 -8.6377 -215.827 A 216 216 0 0 1 -8.6377 -215.827 Q 0 0 -102.535 -190.112 Z"><title>Greece owes Britain $0.550B.</title></path><path class="chord" style="fill: #d2d0c6; stroke: #93918a;" d="M -17.4303 -215.296 A 216 216 0 0 1 -17.2616 -215.309 Q 0 0 -30.5023 -213.835 A 216 216 0 0 1 -30.5023 -213.835 Q 0 0 -17.4303 -215.296 Z"><title>United States owes Portugal $0.520B.</title></path><path class="chord" style="fill: #db704d; stroke: #994e35;" d="M -44.6818 -211.328 A 216 216 0 0 1 -44.5735 -211.351 Q 0 0 -8.6377 -215.827 A 216 216 0 0 1 -8.6377 -215.827 Q 0 0 -44.6818 -211.328 Z"><title>Greece owes Ireland $0.340B.</title></path><g class="group"><path id="group0-0" style="fill: #d2d0c6;" d="M -212.091 -103.505 A 236 236 0 0 1 -111.856 -207.808 L -102.377 -190.197 A 216 216 0 0 0 -194.117 -94.7338 Z"><title>Britain is owed $413B.</title></path><text x="6" dy="15"><textPath xmlns:xlink="http://www.w3.org/1999/xlink" xlink:href="#group0-0">Britain</textPath></text></g><g class="group"><path id="group1-0" style="fill: #f8edd3;" d="M 235.933 -5.63091 A 236 236 0 0 1 35.7948 233.27 L 32.7614 213.501 A 216 216 0 0 0 215.939 -5.15372 Z"><title>France is owed $957B.</title></path><text x="6" dy="15"><textPath xmlns:xlink="http://www.w3.org/1999/xlink" xlink:href="#group1-0">France</textPath></text></g><g class="group"><path id="group2-0" style="fill: #db704d;" d="M -9.43748 -235.811 A 236 236 0 0 1 -9.43748 -235.811 L -8.6377 -215.827 A 216 216 0 0 0 -8.6377 -215.827 Z"><title>Greece is owed $0.00B.</title></path><text x="6" dy="15"/></g><g class="group"><path id="group3-0" style="fill: #db704d;" d="M -103.457 -212.115 A 236 236 0 0 1 -64.3272 -227.064 L -58.8758 -207.821 A 216 216 0 0 0 -94.6892 -194.139 Z"><title>Italy is owed $118B.</title></path><text x="6" dy="15"><textPath xmlns:xlink="http://www.w3.org/1999/xlink" xlink:href="#group3-0">Italy</textPath></text></g><g class="group"><path id="group4-0" style="fill: #db704d;" d="M -23.957 -234.781 A 236 236 0 0 1 -18.8599 -235.245 L -17.2616 -215.309 A 216 216 0 0 0 -21.9268 -214.884 Z"><title>Portugal is owed $14.4B.</title></path><text x="6" dy="15"/></g><g class="group"><path id="group5-0" style="fill: #d2d0c6;" d="M -39.4274 -232.683 A 236 236 0 0 1 -33.3266 -233.635 L -30.5023 -213.835 A 216 216 0 0 0 -36.0861 -212.964 Z"><title>United States is owed $17.4B.</title></path><text x="6" dy="15"/></g><g class="group"><path id="group6-0" style="fill: #d2d0c6;" d="M 26.4379 234.514 A 236 236 0 0 1 -210.158 107.376 L -192.348 98.2767 A 216 216 0 0 0 24.1974 214.64 Z"><title>Germany is owed $803B.</title></path><text x="6" dy="15"><textPath xmlns:xlink="http://www.w3.org/1999/xlink" xlink:href="#group6-0">Germany</textPath></text></g><g class="group"><path id="group7-0" style="fill: #db704d;" d="M -55.1957 -229.455 A 236 236 0 0 1 -48.7007 -230.92 L -44.5735 -211.351 A 216 216 0 0 0 -50.5181 -210.009 Z"><title>Ireland is owed $18.7B.</title></path><text x="6" dy="15"/></g><g class="group"><path id="group8-0" style="fill: #d2d0c6;" d="M 1.44508e-014 -236 A 236 236 0 0 1 235.519 -15.0612 L 215.56 -13.7848 A 216 216 0 0 0 1.32262e-014 -216 Z"><title>Japan is owed $1,000B.</title></path><text x="6" dy="15"><textPath xmlns:xlink="http://www.w3.org/1999/xlink" xlink:href="#group8-0">Japan</textPath></text></g><g class="group"><path id="group9-0" style="fill: #ecd08d;" d="M -214.284 98.8865 A 236 236 0 0 1 -216.061 -94.9413 L -197.75 -86.8954 A 216 216 0 0 0 -196.124 90.5062 Z"><title>Spain is owed $562B.</title></path><text x="6" dy="15"><textPath xmlns:xlink="http://www.w3.org/1999/xlink" xlink:href="#group9-0">Spain</textPath></text></g></g></svg>